<svg version="1.1" xmlns="http://www.w3.org/2000/svg" viewBox="0 0 512 512">
<path fill="#94A61D" d="M235.1,343.9c5.5-7.7,10.1-16.3,16.7-22.8c12.2-12.1,26.6-20.5,44.7-21.2c24.3-1,40.5,11.2,52.3,30.8c9.6,15.9,15.1,33.3,17.2,51.8c0.3,2.6,0.8,5.2,0.9,7.8c0,1.2-0.8,3.3-1.4,3.3c-1.2,0.1-3,0.5-3.7-1.4c-3.1-4.4-6.1-8.9-8.8-13.5c-6.7-11.4-14.2-22.2-24-31.2c-6.1-5.6-13.2-9.7-21-11.2c-8.1-1.5-14.9,2.9-20.9,8.1c-13.6,11.9-20,27.7-22.9,44.8c-2.1,12.2-2.8,24.6-3.1,37c-0.2,9.9,1.9,19.8,1.6,29.7c-0.2,6-2.5,12-4.6,17.7c-2,5.7-7.4,7.2-12.4,7.7c-13.2,1.6-24.3-3.1-34.2-11.9c-16.5-14.6-28.1-32.8-38.6-51.8c-7-12.6-13.8-25.4-19.7-38.5c-9-20.2-17.5-40.4-25.4-60.8c-12-31.1-23-62.5-35-93.6c-6.4-16.5-13.7-32.9-24.9-46.6c-11.2-13.8-18.4-30.1-29.3-43.9c-9.7-12.2-20.9-22.8-31.8-33.5c-5-4.5-10.9-8.5-16.3-13.1c-1.2-1-1.9-2.6-2.9-4.3c0.3-0.6,0.6-1.2,0.9-1.8c7.7,1.6,15.6,2.7,23.2,4.3c18.4,5.8,36.9,11.5,52.6,23.5c14.9,11.4,27.5,24.8,36.4,41.2c13.7,25.3,22.3,52.7,30.3,80.2c1.3,4.5,2.8,9,4.5,14.1c5.7,23.3,14.8,44.5,26.3,65.1c0.5,1.6,0.9,2.9,1.4,4.1c9.3,21.6,24.5,39.2,38.8,57.3c1.9,2.4,4,4.6,6.9,7.9c0-3,0.1-4.3-0-5.6c-1-8.4-2.1-16.7-2.9-25.1c-0.6-6.9-1.2-13.9-1.1-20.8c0.1-9.4,0.8-18.7,1.2-28.1"/>
<path fill="#FFBD13" d="M235.1,343.5c-0.4,9.8-1.1,19.2-1.2,28.6c-0.1,6.9,0.5,13.9,1.2,20.8c0.8,8.4,2,16.7,3,25.1c0.1,1.3-0,2.6-0,5.6c-2.9-3.4-5-5.6-6.9-7.9c-14.3-18.1-29.5-35.7-38.8-57.3c-0.5-1.2-0.9-2.5-1.4-4.5c-1.3-13.4-3.5-26-3.7-38.6c-0.2-15.4,0.1-30.9,2.2-46.1c1.9-13.5,6.2-26.7,10.1-39.8c2.5-8.3,6.3-16.3,9.5-24.4c2.9-4.1,5.5-8.3,8.7-12.1c3.9-4.7,8.3-9,12.3-13.6c1-1.1,2-2.9,1-4.2c-3-19.4,2.7-36.2,14.8-51.3c5.6-6.9,12.5-11.6,20.4-15.3c3-1.4,4.5,0.1,4.9,2.7c1.9,14.1,1,28-5.1,41.1c-1.9,4.2-5.4,7.7-7.3,11.9c-0.6,1.2-1.1,2.1-1.7,3.3c13.7-7.1,27.2-12.3,41.9-5.1c9,3.8,17.8,8.4,24.3,16.4c-20.6,16.2-53,11.5-72.8-10.2c-10.5,16.3-21.3,32.4-27.8,50.8c-2.7,7.7-4.8,15.9-5.5,24.1c-0.7,19.7-1.3,39.5-2.3,59.2c-0,0.4-0.1,1-0.1,1.6c4-8.6,7.5-17.6,12-26.1c12.6-23.4,30.8-40.6,57.3-46.3c8.9-1.9,13.2-5,16.6-13.7c7-17.8,20.5-29,40.3-30.9c6.1-0.6,12.2-0.5,18.3,0.1c-0.8,14.1-9.2,22.7-15.8,32.9c6.7-2.4,10-5,13.4-7.6c10.1-7,21.3-9.4,33.5-6.9c6.1,1.3,12.4,2.2,18.3,4.4c7.5,2.7,6.9,6.1-0.5,8.8c-11.9,4.3-25.9,1.5-38.1-1.2c-3.5-0.8-6.9-3.3-9.3-0.3c-5,2.7-10,5.3-15.4,8.2c1.5-0.5,2.7-1.1,3.9-1.3c16.1-2.8,30.1-9.7,41.9-21.2c4.5-4.4,5-7.8-2.5-10.5c-5.9-2.1-12.2-3-18.4-4.3c-12.1-2.6-23.3-0.1-33.4,6.8c-3.5,2.4-6.8,5.1-10.2,7.7c6.6-9.7,15-18.3,15.8-32.5c-6.8,0.4-12.9,0.4-19,1c-19.8,1.9-33.3,13.1-40.3,30.9c-3.4,8.7-7.7,11.8-16.6,13.7c-26.6,5.7-44.7,22.9-57.3,46.3c-4.5,8.5-8.1,17.5-12,26.1c4,12.4,6.7,25.2,11.4,37.6c4.7,12.5,1.5,25-6.1,34.9c-4.3,3-8.9,5.5-13.1,8.5c-10.9-7.8-18.9-17.6-19.8-31.6c-0.9-14-0.4-20,0.3-26c0.4-1.6,1.4-3.6,1.4-5.2c-0.3-6,2.3-12,4.4-18c4.6,10.1,6,20.6,6.1,31.4c0,8.5-2.5,10.4-10,6.7c-16.1-7.9-25.2-21.1-28-38.6c-0.3-1.8-0.8-3.5-1-5.3c-0.1-1.8,0-3.5,0-5.5c-3.2,0.5-6.2,1.1-9.3,1.6c2.4,6.1,5,11.9,6.6,18c2.1,7.9,3.4,15.9,1.7,24.1c-0.6,3-1.6,4.5-5.4,3.5c-12.4-3.5-19.5-12.8-25.4-23.1c-3.3-5.8-5.1-12.4-7.7-18.9c-12.5,2.9-24.6,7.3-34.4,16.2c-8.2,7.4-14,16.7-18,27.1c-4.7,12.4-7.5,25.2-8.1,38.9"/>
</svg>
