<svg version="1.1" id="Layer_1" xmlns="http://www.w3.org/2000/svg" xmlns:xlink="http://www.w3.org/1999/xlink" x="0px" y="0px"
	 width="100%" viewBox="0 0 512 512" enable-background="new 0 0 512 512" xml:space="preserve">
<path fill="#000000" opacity="1.000000" stroke="none" 
	d="
M293.000000,513.000000 
	C195.357040,513.000000 98.214073,513.000000 1.035558,513.000000 
	C1.035558,342.398682 1.035558,171.797348 1.035558,1.098012 
	C171.559647,1.098012 342.119354,1.098012 512.839539,1.098012 
	C512.839539,171.666550 512.839539,342.333252 512.839539,513.000000 
	C439.797333,513.000000 366.648651,513.000000 293.000000,513.000000 
M209.020340,204.120132 
	C210.082352,195.966751 210.717697,187.730530 212.281403,179.674530 
	C218.538773,147.436951 232.764603,118.886719 254.393906,94.365631 
	C269.299194,77.467522 286.148224,62.470333 305.054749,49.976231 
	C312.057159,45.348766 319.074097,40.738598 325.949432,35.927708 
	C327.239502,35.025005 327.889435,33.207489 328.834778,31.812143 
	C327.102448,31.220661 325.399628,30.493456 323.622772,30.106552 
	C322.941345,29.958174 322.096283,30.603077 321.316559,30.858305 
	C311.947632,33.924957 302.398041,36.536522 293.256226,40.173374 
	C283.790436,43.939117 274.167816,47.823677 265.606567,53.228783 
	C252.986130,61.196625 240.893127,70.115837 229.212677,79.429008 
	C212.247757,92.955658 198.712341,109.526169 188.599655,128.817734 
	C178.633698,147.829330 173.127716,168.133575 169.851837,189.279007 
	C166.244125,212.566422 164.656693,235.919098 164.975616,259.449371 
	C165.108795,269.275635 164.971497,279.105591 164.273422,288.601166 
	C162.874725,284.077362 161.407928,279.573303 160.088486,275.026520 
	C152.101807,247.504471 143.513947,220.154724 129.828323,194.850601 
	C120.952606,178.439774 108.318527,165.034195 93.417412,153.681656 
	C77.679482,141.691605 59.206612,136.003983 40.815975,130.180756 
	C33.293182,127.798714 25.352283,126.737106 17.601593,125.074791 
	C17.295038,125.680450 16.988483,126.286102 16.681929,126.891762 
	C17.620466,128.259872 18.319012,129.910278 19.538929,130.947433 
	C24.923199,135.525009 30.856720,139.522995 35.855797,144.473618 
	C46.769032,155.281082 57.997410,165.917587 67.683746,177.778137 
	C78.929718,191.548386 86.217323,207.932114 92.600876,224.432709 
	C104.625191,255.513885 115.648888,286.982117 127.667618,318.065521 
	C135.566223,338.493256 144.113678,358.692505 153.068329,378.681488 
	C158.955017,391.822113 165.743378,404.595398 172.737808,417.194641 
	C183.265289,436.158112 194.887253,454.361603 211.378784,468.970978 
	C221.262268,477.726471 232.402405,482.463593 245.645050,480.890259 
	C250.686676,480.291260 256.080170,478.799957 258.090881,473.375732 
	C260.210999,467.656372 262.559662,461.627319 262.738037,455.671570 
	C263.032959,445.822815 260.966095,435.909241 261.177856,426.050568 
	C261.442596,413.727478 262.131287,401.281738 264.218628,389.161346 
	C267.158264,372.091827 273.516479,356.276154 287.081757,344.417450 
	C293.054565,339.196045 299.853394,334.795105 307.947571,336.293182 
	C315.841675,337.754211 322.922211,341.823090 328.987793,347.428375 
	C338.779877,356.477386 346.238220,367.254089 352.959381,378.648956 
	C355.697998,383.291931 358.694153,387.797150 361.834534,392.177673 
	C362.511169,393.121552 364.348694,393.678101 365.582703,393.576630 
	C366.140564,393.530762 366.938293,391.427795 366.913208,390.273621 
	C366.856476,387.664886 366.339081,385.067780 366.038269,382.462555 
	C363.908295,364.013702 358.414154,346.595062 348.846863,330.707642 
	C337.069366,311.149811 320.848724,298.883026 296.555603,299.897186 
	C278.482513,300.651672 264.090057,309.029755 251.865723,321.086761 
	C245.229507,327.632111 240.636169,336.248657 235.015198,343.042664 
	C235.599319,329.778351 238.382019,316.978760 243.094635,304.578766 
	C247.041870,294.192657 252.893219,284.950439 261.107208,277.554077 
	C270.938049,268.701813 283.093719,264.326324 295.585297,261.400665 
	C298.117828,267.823639 299.923920,274.455109 303.198303,280.258057 
	C309.031616,290.595978 316.127136,299.872223 328.558563,303.364746 
	C332.369141,304.435364 333.378021,302.872986 333.975830,299.981079 
	C335.666290,291.803925 334.386993,283.722839 332.296204,275.872742 
	C330.679718,269.803314 328.020081,264.011719 325.668213,257.676453 
	C328.827362,258.214539 331.818329,258.723969 335.002075,259.266266 
	C335.002075,261.239899 334.872711,262.901489 335.037018,264.533508 
	C335.215240,266.304077 335.706116,268.040802 335.993256,269.803223 
	C338.856506,287.374573 347.946564,300.534210 364.002350,308.419922 
	C371.450714,312.078217 374.004547,310.154602 373.985962,301.638885 
	C373.962463,290.884186 372.484375,280.370789 367.922729,270.271179 
	C370.754883,271.342560 373.366333,271.898621 375.434814,273.272278 
	C376.708893,274.118378 377.785370,276.182556 377.859741,277.751526 
	C378.143738,283.741638 377.660156,289.774353 378.056854,295.751709 
	C378.987244,309.770111 386.997101,319.586426 397.910156,327.372406 
	C402.143219,330.392517 406.754395,332.882721 411.227661,335.635468 
	C418.802979,321.493073 411.854950,292.101196 398.679047,277.284637 
	C398.809937,277.162079 398.940796,277.039551 399.930908,276.990234 
	C405.838104,277.326904 411.764709,278.137238 417.648224,277.896240 
	C428.115204,277.467499 437.019989,272.986115 444.635437,265.873779 
	C446.800751,263.851501 447.737152,261.123535 445.474121,259.166595 
	C440.821045,255.142838 436.132263,250.630829 430.625427,248.229294 
	C417.350983,242.440262 403.827057,244.192947 390.778839,249.752380 
	C385.344208,252.067871 379.823090,254.552277 377.410431,260.549683 
	C372.419769,257.881500 367.426727,255.212067 362.070557,252.348495 
	C363.589233,251.818832 364.732697,251.236847 365.940887,251.026291 
	C382.078796,248.214035 396.063873,241.353577 407.860291,229.802933 
	C412.399780,225.358047 412.852386,222.026886 405.412384,219.322906 
	C399.541260,217.189148 393.214386,216.273849 387.057861,214.968536 
	C374.937714,212.398743 363.783661,214.875717 353.619110,221.820862 
	C350.108002,224.219910 346.800781,226.917389 343.400421,229.478546 
	C350.047882,219.775421 358.412537,211.153503 359.233246,197.007141 
	C352.470764,197.358200 346.350342,197.442719 340.279297,198.034012 
	C320.495209,199.960861 306.985901,211.115234 300.032776,228.929398 
	C296.635101,237.634338 292.334015,240.735046 283.409302,242.641144 
	C256.853241,248.312805 238.679794,265.567535 226.102203,288.958008 
	C221.555069,297.414307 218.023071,306.416504 214.098175,315.015533 
	C214.076157,314.648743 213.978867,314.021790 214.009964,313.401245 
	C215.000610,293.629608 215.598022,273.825592 217.200165,254.103271 
	C217.861572,245.961380 219.936874,237.730713 222.672226,230.001602 
	C229.171768,211.636230 240.034149,195.543030 250.503052,179.198257 
	C270.362885,200.927078 302.746552,196.194626 323.330872,180.000000 
	C316.812408,171.961868 308.007507,167.353500 298.987976,162.979767 
	C284.331543,155.872665 270.814056,161.020889 257.140808,166.780014 
	C257.493500,165.534424 258.063080,164.673782 258.663940,163.835541 
	C261.411682,160.002151 264.838867,156.487717 266.796936,152.287598 
	C272.889374,139.219162 273.785309,125.307373 271.913025,111.175514 
	C271.567383,108.566559 269.998169,107.072189 267.035889,108.436226 
	C259.145294,112.069611 252.221237,116.805382 246.667389,123.716469 
	C234.521988,138.829971 228.810364,155.601120 231.847702,175.054092 
	C232.050903,176.355591 231.055908,178.163391 230.087769,179.272827 
	C226.071335,183.875397 221.659760,188.141556 217.765778,192.839966 
	C214.596863,196.663498 211.958298,200.926620 209.020340,204.120132 
M315.952881,131.313904 
	C324.197571,116.566643 326.492218,100.862831 323.949249,83.130524 
	C320.891235,84.252121 318.190460,84.579857 316.372375,86.021080 
	C307.143738,93.336761 297.604614,100.388359 289.202454,108.586296 
	C279.001221,118.539619 274.967194,131.337357 275.979370,145.643585 
	C276.204865,148.830597 277.432800,150.268158 280.880249,150.051361 
	C295.160492,149.153275 306.803345,143.360031 315.952881,131.313904 
M444.296082,126.046089 
	C440.076721,124.456070 435.967468,122.058929 431.612274,121.464973 
	C425.057709,120.571075 418.330963,120.811516 411.677612,120.815887 
	C407.429077,120.818680 407.049316,124.044716 408.411469,126.721931 
	C413.816315,137.344727 418.199860,148.615082 427.935791,156.517914 
	C440.101288,166.392853 454.183960,167.439484 469.501740,166.847031 
	C467.000244,149.346207 460.907745,134.932800 444.296082,126.046089 
M402.438721,118.001190 
	C407.108398,116.342842 412.441010,115.613281 416.318756,112.845444 
	C426.424072,105.632507 432.084991,94.496490 439.080750,84.577820 
	C441.129761,81.672691 439.970337,79.435768 437.183502,78.195305 
	C435.319580,77.365639 433.096100,77.144958 431.013702,77.038025 
	C419.631287,76.453461 408.561432,78.040520 397.851593,82.036964 
	C385.498230,86.646660 375.578247,102.467857 377.110077,115.572861 
	C377.250031,116.770134 378.890564,118.746689 379.829895,118.744133 
	C387.069305,118.724457 394.307617,118.305481 402.438721,118.001190 
M301.047241,157.305374 
	C307.060089,163.778549 314.455078,168.354050 322.739838,170.888000 
	C338.331024,175.656677 353.313995,172.771255 368.308716,165.506348 
	C367.819366,163.522858 367.897888,161.082474 366.737488,159.635986 
	C362.668854,154.564331 358.714905,149.172501 353.735840,145.103333 
	C340.280090,134.106552 317.699005,136.202408 302.965179,146.483475 
	C296.845032,150.754044 296.685883,151.134750 301.047241,157.305374 
M461.045166,331.048950 
	C459.698822,324.575043 458.894867,317.928986 456.905273,311.659210 
	C450.734100,292.212036 434.183197,282.766083 416.131714,281.944855 
	C412.289490,281.770081 410.730835,282.835205 410.931976,286.938751 
	C411.556885,299.687134 415.688416,311.350555 423.738434,320.921387 
	C433.097687,332.048767 445.453339,338.278534 461.049377,338.043671 
	C461.163330,335.776489 461.261627,333.820770 461.045166,331.048950 
M398.284760,128.042862 
	C384.100647,119.152863 369.639954,119.803696 355.128967,127.033089 
	C350.308533,129.434631 349.756775,131.378357 352.634674,136.093002 
	C365.651703,157.417740 385.845703,164.004929 411.258636,158.253784 
	C416.618103,157.040909 417.263947,154.884445 414.996765,149.887115 
	C411.210358,141.541138 405.613739,134.570206 398.284760,128.042862 
M440.437378,120.065819 
	C444.647827,121.699074 448.797241,123.516907 453.079559,124.932808 
	C469.416077,130.334274 483.426880,126.145134 495.904053,114.742737 
	C499.736786,111.240135 499.422821,108.629189 495.979828,105.483551 
	C486.847168,97.139687 476.635498,91.765350 463.738617,92.965782 
	C450.982849,94.153076 440.366241,99.516800 431.749695,108.849251 
	C429.050201,111.773018 429.283844,114.634666 433.165253,116.603172 
	C435.340454,117.706367 437.503754,118.833092 440.437378,120.065819 
M349.573364,86.950928 
	C337.578339,95.740982 329.799408,107.354393 325.694122,121.650841 
	C322.683624,132.134674 324.514526,134.599091 335.011993,133.007217 
	C335.174774,132.982529 335.351837,133.033173 335.509369,132.995300 
	C352.474304,128.919067 365.690735,120.363770 371.006866,102.720039 
	C372.348663,98.266731 373.290070,93.639664 373.877686,89.023979 
	C374.907074,80.938065 371.420349,78.244980 363.521973,80.956627 
	C358.956207,82.524109 354.558044,84.579613 349.573364,86.950928 
z"/>
<path fill="#94A61D" opacity="1.000000" stroke="none" 
	d="
M235.121353,343.930969 
	C240.636169,336.248657 245.229507,327.632111 251.865723,321.086761 
	C264.090057,309.029755 278.482513,300.651672 296.555603,299.897186 
	C320.848724,298.883026 337.069366,311.149811 348.846863,330.707642 
	C358.414154,346.595062 363.908295,364.013702 366.038269,382.462555 
	C366.339081,385.067780 366.856476,387.664886 366.913208,390.273621 
	C366.938293,391.427795 366.140564,393.530762 365.582703,393.576630 
	C364.348694,393.678101 362.511169,393.121552 361.834534,392.177673 
	C358.694153,387.797150 355.697998,383.291931 352.959381,378.648956 
	C346.238220,367.254089 338.779877,356.477386 328.987793,347.428375 
	C322.922211,341.823090 315.841675,337.754211 307.947571,336.293182 
	C299.853394,334.795105 293.054565,339.196045 287.081757,344.417450 
	C273.516479,356.276154 267.158264,372.091827 264.218628,389.161346 
	C262.131287,401.281738 261.442596,413.727478 261.177856,426.050568 
	C260.966095,435.909241 263.032959,445.822815 262.738037,455.671570 
	C262.559662,461.627319 260.210999,467.656372 258.090881,473.375732 
	C256.080170,478.799957 250.686676,480.291260 245.645050,480.890259 
	C232.402405,482.463593 221.262268,477.726471 211.378784,468.970978 
	C194.887253,454.361603 183.265289,436.158112 172.737808,417.194641 
	C165.743378,404.595398 158.955017,391.822113 153.068329,378.681488 
	C144.113678,358.692505 135.566223,338.493256 127.667618,318.065521 
	C115.648888,286.982117 104.625191,255.513885 92.600876,224.432709 
	C86.217323,207.932114 78.929718,191.548386 67.683746,177.778137 
	C57.997410,165.917587 46.769032,155.281082 35.855797,144.473618 
	C30.856720,139.522995 24.923199,135.525009 19.538929,130.947433 
	C18.319012,129.910278 17.620466,128.259872 16.681929,126.891762 
	C16.988483,126.286102 17.295038,125.680450 17.601593,125.074791 
	C25.352283,126.737106 33.293182,127.798714 40.815975,130.180756 
	C59.206612,136.003983 77.679482,141.691605 93.417412,153.681656 
	C108.318527,165.034195 120.952606,178.439774 129.828323,194.850601 
	C143.513947,220.154724 152.101807,247.504471 160.088486,275.026520 
	C161.407928,279.573303 162.874725,284.077362 164.633453,289.177979 
	C170.319794,312.459442 179.412567,333.645599 190.910126,354.267334 
	C191.416687,355.882385 191.798798,357.144287 192.316437,358.347870 
	C201.590820,379.911896 216.756165,397.493073 231.105026,415.621338 
	C232.976471,417.985687 235.065613,420.177765 237.995209,423.525146 
	C237.995209,420.571381 238.121719,419.248199 237.974686,417.956207 
	C237.021637,409.581818 235.847946,401.229218 235.066055,392.839722 
	C234.420685,385.915100 233.850037,378.946503 233.905197,372.002625 
	C233.979568,362.642761 234.686111,353.287964 235.121353,343.930969 
z"/>
<path fill="#FFBD13" opacity="1.000000" stroke="none" 
	d="
M235.068268,343.486816 
	C234.686111,353.287964 233.979568,362.642761 233.905197,372.002625 
	C233.850037,378.946503 234.420685,385.915100 235.066055,392.839722 
	C235.847946,401.229218 237.021637,409.581818 237.974686,417.956207 
	C238.121719,419.248199 237.995209,420.571381 237.995209,423.525146 
	C235.065613,420.177765 232.976471,417.985687 231.105026,415.621338 
	C216.756165,397.493073 201.590820,379.911896 192.316437,358.347870 
	C191.798798,357.144287 191.416687,355.882385 190.947815,353.856384 
	C189.616089,340.456604 187.428940,327.862335 187.225281,315.236023 
	C186.977509,299.875092 187.304352,284.333862 189.428131,269.156860 
	C191.311935,255.694641 195.630463,242.514435 199.573151,229.420181 
	C202.084412,221.079910 205.870224,213.123398 209.084564,204.994812 
	C211.958298,200.926620 214.596863,196.663498 217.765778,192.839966 
	C221.659760,188.141556 226.071335,183.875397 230.087769,179.272827 
	C231.055908,178.163391 232.050903,176.355591 231.847702,175.054092 
	C228.810364,155.601120 234.521988,138.829971 246.667389,123.716469 
	C252.221237,116.805382 259.145294,112.069611 267.035889,108.436226 
	C269.998169,107.072189 271.567383,108.566559 271.913025,111.175514 
	C273.785309,125.307373 272.889374,139.219162 266.796936,152.287598 
	C264.838867,156.487717 261.411682,160.002151 258.663940,163.835541 
	C258.063080,164.673782 257.493500,165.534424 257.140808,166.780014 
	C270.814056,161.020889 284.331543,155.872665 298.987976,162.979767 
	C308.007507,167.353500 316.812408,171.961868 323.330872,180.000000 
	C302.746552,196.194626 270.362885,200.927078 250.503052,179.198257 
	C240.034149,195.543030 229.171768,211.636230 222.672226,230.001602 
	C219.936874,237.730713 217.861572,245.961380 217.200165,254.103271 
	C215.598022,273.825592 215.000610,293.629608 214.009964,313.401245 
	C213.978867,314.021790 214.076157,314.648743 214.098175,315.015533 
	C218.023071,306.416504 221.555069,297.414307 226.102203,288.958008 
	C238.679794,265.567535 256.853241,248.312805 283.409302,242.641144 
	C292.334015,240.735046 296.635101,237.634338 300.032776,228.929398 
	C306.985901,211.115234 320.495209,199.960861 340.279297,198.034012 
	C346.350342,197.442719 352.470764,197.358200 359.233246,197.007141 
	C358.412537,211.153503 350.047882,219.775421 343.400421,229.478546 
	C346.800781,226.917389 350.108002,224.219910 353.619110,221.820862 
	C363.783661,214.875717 374.937714,212.398743 387.057861,214.968536 
	C393.214386,216.273849 399.541260,217.189148 405.412384,219.322906 
	C412.852386,222.026886 412.399780,225.358047 407.860291,229.802933 
	C396.063873,241.353577 382.078796,248.214035 365.940887,251.026291 
	C364.732697,251.236847 363.589233,251.818832 362.070557,252.348495 
	C367.426727,255.212067 372.419769,257.881500 377.410431,260.549683 
	C379.823090,254.552277 385.344208,252.067871 390.778839,249.752380 
	C403.827057,244.192947 417.350983,242.440262 430.625427,248.229294 
	C436.132263,250.630829 440.821045,255.142838 445.474121,259.166595 
	C447.737152,261.123535 446.800751,263.851501 444.635437,265.873779 
	C437.019989,272.986115 428.115204,277.467499 417.648224,277.896240 
	C411.764709,278.137238 405.838104,277.326904 399.392700,276.678711 
	C398.339447,276.265076 397.824402,276.162994 397.309357,276.060913 
	C397.083160,276.354828 396.856995,276.648743 396.630829,276.942688 
	C397.179413,277.175568 397.728027,277.408478 398.276611,277.641388 
	C411.854950,292.101196 418.802979,321.493073 411.227661,335.635468 
	C406.754395,332.882721 402.143219,330.392517 397.910156,327.372406 
	C386.997101,319.586426 378.987244,309.770111 378.056854,295.751709 
	C377.660156,289.774353 378.143738,283.741638 377.859741,277.751526 
	C377.785370,276.182556 376.708893,274.118378 375.434814,273.272278 
	C373.366333,271.898621 370.754883,271.342560 367.922729,270.271179 
	C372.484375,280.370789 373.962463,290.884186 373.985962,301.638885 
	C374.004547,310.154602 371.450714,312.078217 364.002350,308.419922 
	C347.946564,300.534210 338.856506,287.374573 335.993256,269.803223 
	C335.706116,268.040802 335.215240,266.304077 335.037018,264.533508 
	C334.872711,262.901489 335.002075,261.239899 335.002075,259.266266 
	C331.818329,258.723969 328.827362,258.214539 325.668213,257.676453 
	C328.020081,264.011719 330.679718,269.803314 332.296204,275.872742 
	C334.386993,283.722839 335.666290,291.803925 333.975830,299.981079 
	C333.378021,302.872986 332.369141,304.435364 328.558563,303.364746 
	C316.127136,299.872223 309.031616,290.595978 303.198303,280.258057 
	C299.923920,274.455109 298.117828,267.823639 295.585297,261.400665 
	C283.093719,264.326324 270.938049,268.701813 261.107208,277.554077 
	C252.893219,284.950439 247.041870,294.192657 243.094635,304.578766 
	C238.382019,316.978760 235.599319,329.778351 235.068268,343.486816 
M333.514832,235.992172 
	C331.101196,237.782639 328.687561,239.573120 326.257111,241.376053 
	C332.348969,244.243988 335.713043,241.611938 338.348907,236.410980 
	C339.542999,234.054825 341.805389,232.240082 343.583160,230.179718 
	C343.195221,229.826187 342.807281,229.472656 342.419373,229.119125 
	C339.624146,231.237839 336.828949,233.356567 333.514832,235.992172 
z"/>
<path fill="#717F35" opacity="1.000000" stroke="none" 
	d="
M209.052460,204.557465 
	C205.870224,213.123398 202.084412,221.079910 199.573151,229.420181 
	C195.630463,242.514435 191.311935,255.694641 189.428131,269.156860 
	C187.304352,284.333862 186.977509,299.875092 187.225281,315.236023 
	C187.428940,327.862335 189.616089,340.456604 190.886429,353.476044 
	C179.412567,333.645599 170.319794,312.459442 164.975342,289.344360 
	C164.971497,279.105591 165.108795,269.275635 164.975616,259.449371 
	C164.656693,235.919098 166.244125,212.566422 169.851837,189.279007 
	C173.127716,168.133575 178.633698,147.829330 188.599655,128.817734 
	C198.712341,109.526169 212.247757,92.955658 229.212677,79.429008 
	C240.893127,70.115837 252.986130,61.196625 265.606567,53.228783 
	C274.167816,47.823677 283.790436,43.939117 293.256226,40.173374 
	C302.398041,36.536522 311.947632,33.924957 321.316559,30.858305 
	C322.096283,30.603077 322.941345,29.958174 323.622772,30.106552 
	C325.399628,30.493456 327.102448,31.220661 328.834778,31.812136 
	C327.889435,33.207489 327.239502,35.025005 325.949432,35.927708 
	C319.074097,40.738598 312.057159,45.348766 305.054749,49.976231 
	C286.148224,62.470333 269.299194,77.467522 254.393906,94.365631 
	C232.764603,118.886719 218.538773,147.436951 212.281403,179.674530 
	C210.717697,187.730530 210.082352,195.966751 209.052460,204.557465 
z"/>
<path fill="#FFBD13" opacity="1.000000" stroke="none" 
	d="
M315.751892,131.629150 
	C306.803345,143.360031 295.160492,149.153275 280.880249,150.051361 
	C277.432800,150.268158 276.204865,148.830597 275.979370,145.643585 
	C274.967194,131.337357 279.001221,118.539619 289.202454,108.586296 
	C297.604614,100.388359 307.143738,93.336761 316.372375,86.021080 
	C318.190460,84.579857 320.891235,84.252121 323.949249,83.130524 
	C326.492218,100.862831 324.197571,116.566643 315.751892,131.629150 
z"/>
<path fill="#FFBD13" opacity="1.000000" stroke="none" 
	d="
M444.623047,126.245377 
	C460.907745,134.932800 467.000244,149.346207 469.501740,166.847031 
	C454.183960,167.439484 440.101288,166.392853 427.935791,156.517914 
	C418.199860,148.615082 413.816315,137.344727 408.411469,126.721931 
	C407.049316,124.044716 407.429077,120.818680 411.677612,120.815887 
	C418.330963,120.811516 425.057709,120.571075 431.612274,121.464973 
	C435.967468,122.058929 440.076721,124.456070 444.623047,126.245377 
z"/>
<path fill="#FFBD13" opacity="1.000000" stroke="none" 
	d="
M401.992493,118.005760 
	C394.307617,118.305481 387.069305,118.724457 379.829895,118.744133 
	C378.890564,118.746689 377.250031,116.770134 377.110077,115.572861 
	C375.578247,102.467857 385.498230,86.646660 397.851593,82.036964 
	C408.561432,78.040520 419.631287,76.453461 431.013702,77.038025 
	C433.096100,77.144958 435.319580,77.365639 437.183502,78.195305 
	C439.970337,79.435768 441.129761,81.672691 439.080750,84.577820 
	C432.084991,94.496490 426.424072,105.632507 416.318756,112.845444 
	C412.441010,115.613281 407.108398,116.342842 401.992493,118.005760 
z"/>
<path fill="#FFBD13" opacity="1.000000" stroke="none" 
	d="
M300.991455,156.937134 
	C296.685883,151.134750 296.845032,150.754044 302.965179,146.483475 
	C317.699005,136.202408 340.280090,134.106552 353.735840,145.103333 
	C358.714905,149.172501 362.668854,154.564331 366.737488,159.635986 
	C367.897888,161.082474 367.819366,163.522858 368.308716,165.506348 
	C353.313995,172.771255 338.331024,175.656677 322.739838,170.888000 
	C314.455078,168.354050 307.060089,163.778549 300.991455,156.937134 
z"/>
<path fill="#FFBD13" opacity="1.000000" stroke="none" 
	d="
M461.202515,331.456970 
	C461.261627,333.820770 461.163330,335.776489 461.049377,338.043671 
	C445.453339,338.278534 433.097687,332.048767 423.738434,320.921387 
	C415.688416,311.350555 411.556885,299.687134 410.931976,286.938751 
	C410.730835,282.835205 412.289490,281.770081 416.131714,281.944855 
	C434.183197,282.766083 450.734100,292.212036 456.905273,311.659210 
	C458.894867,317.928986 459.698822,324.575043 461.202515,331.456970 
z"/>
<path fill="#FFBD13" opacity="1.000000" stroke="none" 
	d="
M398.600403,128.228638 
	C405.613739,134.570206 411.210358,141.541138 414.996765,149.887115 
	C417.263947,154.884445 416.618103,157.040909 411.258636,158.253784 
	C385.845703,164.004929 365.651703,157.417740 352.634674,136.093002 
	C349.756775,131.378357 350.308533,129.434631 355.128967,127.033089 
	C369.639954,119.803696 384.100647,119.152863 398.600403,128.228638 
z"/>
<path fill="#FFBD13" opacity="1.000000" stroke="none" 
	d="
M440.054901,120.007507 
	C437.503754,118.833092 435.340454,117.706367 433.165253,116.603172 
	C429.283844,114.634666 429.050201,111.773018 431.749695,108.849251 
	C440.366241,99.516800 450.982849,94.153076 463.738617,92.965782 
	C476.635498,91.765350 486.847168,97.139687 495.979828,105.483551 
	C499.422821,108.629189 499.736786,111.240135 495.904053,114.742737 
	C483.426880,126.145134 469.416077,130.334274 453.079559,124.932808 
	C448.797241,123.516907 444.647827,121.699074 440.054901,120.007507 
z"/>
<path fill="#FFBD13" opacity="1.000000" stroke="none" 
	d="
M349.828918,86.683212 
	C354.558044,84.579613 358.956207,82.524109 363.521973,80.956627 
	C371.420349,78.244980 374.907074,80.938065 373.877686,89.023979 
	C373.290070,93.639664 372.348663,98.266731 371.006866,102.720039 
	C365.690735,120.363770 352.474304,128.919067 335.509369,132.995300 
	C335.351837,133.033173 335.174774,132.982529 335.011993,133.007217 
	C324.514526,134.599091 322.683624,132.134674 325.694122,121.650841 
	C329.799408,107.354393 337.578339,95.740982 349.828918,86.683212 
z"/>
<path fill="#000000" opacity="1.000000" stroke="none" 
	d="
M333.774292,235.733734 
	C336.828949,233.356567 339.624146,231.237839 342.419373,229.119125 
	C342.807281,229.472656 343.195221,229.826187 343.583160,230.179718 
	C341.805389,232.240082 339.542999,234.054825 338.348907,236.410980 
	C335.713043,241.611938 332.348969,244.243988 326.257111,241.376053 
	C328.687561,239.573120 331.101196,237.782639 333.774292,235.733734 
z"/>
<path fill="#000000" opacity="1.000000" stroke="none" 
	d="
M398.477844,277.463013 
	C397.728027,277.408478 397.179413,277.175568 396.630829,276.942688 
	C396.856995,276.648743 397.083160,276.354828 397.309357,276.060913 
	C397.824402,276.162994 398.339447,276.265076 398.963074,276.642090 
	C398.940796,277.039551 398.809937,277.162079 398.477844,277.463013 
z"/>
</svg>