<svg width="512" height="512" xmlns="http://www.w3.org/2000/svg" xml:space="preserve" enable-background="new 0 0 512 512" version="1.1">

 <g>
  <title>Layer 1</title>
  <path id="svg_2" d="m235.12135,343.93097c5.51482,-7.68231 10.10816,-16.29886 16.74437,-22.84421c12.22434,-12.057 26.61679,-20.43509 44.68988,-21.18957c24.29312,-1.01416 40.51377,11.25262 52.29126,30.81045c9.56729,15.88742 15.06144,33.30606 17.19141,51.75492c0.30081,2.60522 0.81821,5.20233 0.87494,7.81106c0.02508,1.15418 -0.77265,3.25714 -1.33051,3.30301c-1.23401,0.10147 -3.07153,-0.45508 -3.74817,-1.39896c-3.14038,-4.38052 -6.13653,-8.88574 -8.87515,-13.52871c-6.72116,-11.39487 -14.1795,-22.17157 -23.97159,-31.22058c-6.06558,-5.60529 -13.14611,-9.67417 -21.04022,-11.1352c-8.09418,-1.49808 -14.893,2.90287 -20.86581,8.12427c-13.56528,11.8587 -19.9235,27.67438 -22.86313,44.7439c-2.08734,12.12039 -2.77603,24.56613 -3.04077,36.88922c-0.21177,9.85867 1.8551,19.77224 1.56018,29.621c-0.17838,5.95575 -2.52704,11.9848 -4.64716,17.70416c-2.01071,5.42423 -7.4042,6.91553 -12.44583,7.51453c-13.24265,1.57333 -24.38278,-3.16379 -34.26627,-11.91928c-16.49153,-14.60938 -28.11349,-32.81287 -38.64097,-51.77634c-6.99443,-12.59924 -13.78279,-25.37253 -19.66948,-38.51315c-8.95465,-19.98899 -17.50211,-40.18823 -25.40071,-60.61597c-12.01873,-31.0834 -23.04243,-62.55164 -35.06674,-93.63281c-6.38356,-16.5006 -13.67116,-32.88432 -24.91713,-46.65457c-9.68634,-11.86055 -20.91472,-22.49706 -31.82795,-33.30452c-4.99908,-4.95062 -10.9326,-8.94861 -16.31687,-13.52619c-1.21992,-1.03715 -1.91846,-2.68756 -2.857,-4.05567c0.30655,-0.60566 0.61311,-1.21131 0.91966,-1.81697c7.75069,1.66232 15.69159,2.72392 23.21439,5.10597c18.39063,5.82322 36.8635,11.51085 52.60143,23.5009c14.90112,11.35254 27.5352,24.75811 36.41091,41.16894c13.68563,25.30412 22.27349,52.65387 30.26017,80.17592c1.31944,4.54678 2.78624,9.05084 4.54496,14.15146c5.68634,23.28146 14.77912,44.46762 26.27668,65.08935c0.50656,1.61505 0.88867,2.87696 1.40631,4.08054c9.27438,21.56403 24.43973,39.1452 38.78859,57.27347c1.87144,2.36435 3.96058,4.55643 6.89018,7.90381c0,-2.95377 0.12651,-4.27695 -0.02052,-5.56894c-0.95305,-8.37439 -2.12674,-16.72699 -2.90863,-25.11649c-0.64538,-6.92462 -1.21602,-13.89322 -1.16086,-20.83709c0.07437,-9.35987 0.78091,-18.71467 1.21615,-28.07166z" fill="#94A61D"/>
  <path id="svg_3" d="m235.06827,343.48682c-0.38216,9.80114 -1.0887,19.15594 -1.16307,28.51581c-0.05516,6.94387 0.51548,13.91247 1.16086,20.83709c0.78189,8.3895 1.95558,16.7421 2.90863,25.11649c0.14703,1.29199 0.02052,2.61517 0.02052,5.56894c-2.9296,-3.34738 -5.01874,-5.53946 -6.89018,-7.90381c-14.34886,-18.12827 -29.51421,-35.70944 -38.78859,-57.27347c-0.51764,-1.20358 -0.89975,-2.46549 -1.36863,-4.49149c-1.33172,-13.39978 -3.51887,-25.99405 -3.72253,-38.62036c-0.24777,-15.36093 0.07907,-30.90216 2.20285,-46.07916c1.88381,-13.46222 6.20233,-26.64243 10.14502,-39.73668c2.51126,-8.34027 6.29707,-16.29678 9.51141,-24.42537c2.87374,-4.06819 5.5123,-8.33131 8.68122,-12.15484c3.89398,-4.69841 8.30556,-8.96457 12.32199,-13.56714c0.96814,-1.10944 1.96313,-2.91724 1.75993,-4.21874c-3.03734,-19.45297 2.67429,-36.22412 14.81969,-51.33762c5.55385,-6.91109 12.4779,-11.64686 20.3685,-15.28024c2.96228,-1.36404 4.53149,0.13033 4.87714,2.73928c1.87228,14.13186 0.97634,28.04365 -5.11609,41.11209c-1.95807,4.20012 -5.38526,7.71455 -8.133,11.54794c-0.60086,0.83824 -1.17044,1.69888 -1.52313,2.94447c13.67325,-5.75912 27.19073,-10.90734 41.84717,-3.80024c9.01953,4.37373 17.82443,8.9821 24.34289,17.02023c-20.58432,16.19463 -52.96798,20.92708 -72.82782,-0.80174c-10.4689,16.34477 -21.33128,32.43797 -27.83082,50.80334c-2.73536,7.72911 -4.81066,15.95978 -5.47207,24.10167c-1.60214,19.72232 -2.19955,39.52634 -3.1902,59.29798c-0.03109,0.62054 0.0662,1.24749 0.08821,1.61428c3.9249,-8.59903 7.4569,-17.60122 12.00403,-26.05752c12.57759,-23.39047 30.75104,-40.64521 57.3071,-46.31687c8.92472,-1.90609 13.2258,-5.0068 16.62348,-13.71174c6.95312,-17.81417 20.46243,-28.96854 40.24652,-30.89539c6.07104,-0.59129 12.19146,-0.67581 18.95395,-1.02687c-0.82071,14.14636 -9.18537,22.76828 -15.83283,32.47141c3.40036,-2.56116 6.70758,-5.25864 10.21869,-7.65769c10.16455,-6.94514 21.3186,-9.42212 33.43875,-6.85232c6.15653,1.30531 12.4834,2.22061 18.35452,4.35437c7.44001,2.70398 6.9874,6.03514 2.44791,10.48002c-11.79642,11.55065 -25.78149,18.4111 -41.9194,21.22336c-1.20819,0.21056 -2.35166,0.79254 -3.87033,1.32221c5.35617,2.86357 10.34921,5.533 15.33987,8.20118c2.41266,-5.9974 7.93378,-8.48181 13.36841,-10.7973c13.04822,-5.55943 26.57214,-7.31212 39.84659,-1.52309c5.50683,2.40154 10.19562,6.91355 14.84869,10.9373c2.26303,1.95695 1.32663,4.68491 -0.83868,6.70719c-7.61545,7.11233 -16.52024,11.59372 -26.98722,12.02246c-5.88351,0.241 -11.81012,-0.56934 -18.25552,-1.21753c-1.05325,-0.41363 -1.5683,-0.51572 -2.08334,-0.6178c-0.2262,0.29392 -0.45237,0.58783 -0.67853,0.88178c0.54858,0.23288 1.0972,0.46579 1.64578,0.6987c13.57834,14.45981 20.52637,43.85168 12.95105,57.99408c-4.47327,-2.75275 -9.08444,-5.24295 -13.3175,-8.26306c-10.91306,-7.78598 -18.92292,-17.6023 -19.85331,-31.6207c-0.39669,-5.97736 0.08689,-12.01007 -0.19711,-18.00018c-0.07437,-1.56897 -1.15085,-3.63315 -2.42493,-4.47925c-2.06848,-1.37366 -4.67993,-1.92972 -7.51208,-3.0011c4.56165,10.09961 6.03973,20.61301 6.06323,31.36771c0.01859,8.51571 -2.53525,10.43933 -9.98361,6.78103c-16.05579,-7.88571 -25.14584,-21.04535 -28.00909,-38.6167c-0.28714,-1.76242 -0.77802,-3.49914 -0.95624,-5.26971c-0.16431,-1.63202 -0.03495,-3.29361 -0.03495,-5.26724c-3.18374,-0.5423 -6.17471,-1.05173 -9.33386,-1.58982c2.35187,6.33527 5.01151,12.12686 6.62799,18.19629c2.09079,7.8501 3.37009,15.93118 1.67963,24.10834c-0.59781,2.89191 -1.60669,4.45428 -5.41727,3.38367c-12.43142,-3.49253 -19.52694,-12.76877 -25.36026,-23.10669c-3.27438,-5.80295 -5.08047,-12.43442 -7.613,-18.85739c-12.49158,2.92565 -24.64725,7.30114 -34.47809,16.15341c-8.21399,7.39636 -14.06534,16.63858 -18.01257,27.02469c-4.71262,12.39999 -7.49532,25.19958 -8.02637,38.90805m98.44656,-107.49465c-2.41363,1.79047 -4.82727,3.58095 -7.25772,5.38388c6.09186,2.86794 9.45593,0.23589 12.0918,-4.96507c1.19409,-2.35616 3.45648,-4.1709 5.23425,-6.23126c-0.38794,-0.35353 -0.77588,-0.70706 -1.16379,-1.0606c-2.79522,2.11872 -5.59042,4.23745 -8.90454,6.87305z" fill="#FFBD13"/>
  <path id="svg_4" d="m209.05246,204.55747c-3.18224,8.56593 -6.96805,16.52244 -9.47931,24.86271c-3.94269,13.09425 -8.26121,26.27446 -10.14502,39.73668c-2.12378,15.177 -2.45062,30.71823 -2.20285,46.07916c0.20366,12.62631 2.39081,25.22058 3.66115,38.24002c-11.47386,-19.83044 -20.56664,-41.0166 -25.91109,-64.13168c-0.00384,-10.23877 0.13345,-20.06872 0.00028,-29.89499c-0.31893,-23.53027 1.2685,-46.88295 4.87622,-70.17036c3.27588,-21.14543 8.78186,-41.44968 18.74782,-60.46128c10.11268,-19.29156 23.6481,-35.86207 40.61302,-49.38872c11.68045,-9.31317 23.77345,-18.23239 36.39389,-26.20023c8.56125,-5.4051 18.18387,-9.28966 27.64966,-13.05541c9.14181,-3.63685 18.6914,-6.24841 28.06033,-9.31506c0.77972,-0.25523 1.62479,-0.90014 2.30621,-0.75176c1.77686,0.38691 3.47968,1.11411 5.21201,1.70559c-0.94535,1.39535 -1.59528,3.21287 -2.88535,4.11557c-6.87533,4.81089 -13.89227,9.42106 -20.89468,14.04852c-18.90653,12.4941 -35.75556,27.49129 -50.66084,44.3894c-21.62931,24.52109 -35.85514,53.07132 -42.11251,85.3089c-1.5637,8.056 -2.19905,16.29222 -3.22894,24.88294z" fill="#717F35"/>
  <path id="svg_5" d="m315.75189,131.62915c-8.94855,11.73088 -20.5914,17.52413 -34.87164,18.42221c-3.44745,0.2168 -4.67539,-1.22076 -4.90088,-4.40777c-1.01218,-14.30623 3.02185,-27.10397 13.22308,-37.05729c8.40216,-8.19794 17.94129,-15.24954 27.16992,-22.56522c1.81809,-1.44122 4.51886,-1.76896 7.57688,-2.89056c2.54297,17.73231 0.24832,33.43612 -8.19736,48.49863z" fill="#FFBD13"/>
  <path id="svg_6" d="m444.62305,126.24538c16.28469,8.68742 22.37719,23.10083 24.87869,40.60165c-15.31778,0.59245 -29.40045,-0.45418 -41.56595,-10.32912c-9.73593,-7.90283 -14.11948,-19.17318 -19.52432,-29.79598c-1.36215,-2.67721 -0.98239,-5.90325 3.26614,-5.90604c6.65335,-0.00437 13.3801,-0.24482 19.93466,0.64908c4.3552,0.59396 8.46445,2.9911 13.01078,4.78041z" fill="#FFBD13"/>
  <path id="svg_7" d="m401.99249,118.00576c-7.68487,0.29972 -14.92319,0.7187 -22.16259,0.73837c-0.93934,0.00256 -2.57987,-1.974 -2.71982,-3.17127c-1.53183,-13.105 8.38815,-28.9262 20.74151,-33.5359c10.70984,-3.99644 21.7797,-5.5835 33.16211,-4.99893c2.0824,0.10693 4.30588,0.32761 6.1698,1.15728c2.78684,1.24046 3.94626,3.47738 1.89725,6.38251c-6.99576,9.91867 -12.65668,21.05469 -22.76199,28.26762c-3.87775,2.76784 -9.21036,3.4974 -14.32627,5.16032z" fill="#FFBD13"/>
  <path id="svg_8" d="m300.99145,156.93713c-4.30557,-5.80238 -4.14642,-6.18309 1.97373,-10.45366c14.73382,-10.28106 37.31491,-12.37692 50.77066,-1.38014c4.97906,4.06917 8.93301,9.461 13.00165,14.53266c1.1604,1.44648 1.08188,3.88687 1.57123,5.87036c-14.99473,7.2649 -29.9777,10.15033 -45.56888,5.38165c-8.28476,-2.53395 -15.67975,-7.10945 -21.74839,-13.95087z" fill="#FFBD13"/>
  <path id="svg_9" d="m461.20252,331.45697c0.05911,2.3638 -0.03919,4.31952 -0.15314,6.5867c-15.59604,0.23486 -27.95169,-5.9949 -37.31095,-17.12228c-8.05001,-9.57084 -12.18154,-21.23426 -12.80645,-33.98264c-0.20114,-4.10355 1.35751,-5.16867 5.19973,-4.99389c18.05149,0.82122 34.60239,10.26718 40.77356,29.71435c1.9896,6.26978 2.79355,12.91583 4.29725,19.79776z" fill="#FFBD13"/>
  <path id="svg_10" d="m398.6004,128.22864c7.01334,6.34157 12.60996,13.3125 16.39636,21.65847c2.26719,4.99733 1.62134,7.1538 -3.73812,8.36667c-25.41294,5.75115 -45.60694,-0.83604 -58.62397,-22.16078c-2.87789,-4.71464 -2.32614,-6.65837 2.4943,-9.05991c14.51098,-7.22939 28.97168,-7.88023 43.47143,1.19555z" fill="#FFBD13"/>
  <path id="svg_11" d="m440.0549,120.00751c-2.55115,-1.17442 -4.71445,-2.30114 -6.88965,-3.40434c-3.88141,-1.9685 -4.11505,-4.83015 -1.41556,-7.75392c8.61655,-9.33245 19.23316,-14.69617 31.98893,-15.88347c12.89688,-1.20043 23.10855,4.17391 32.24121,12.51777c3.44299,3.14564 3.75696,5.75658 -0.07578,9.25919c-12.47717,11.40239 -26.48797,15.59153 -42.82449,10.19007c-4.28232,-1.4159 -8.43173,-3.23374 -13.02466,-4.9253z" fill="#FFBD13"/>
  <path id="svg_12" d="m349.82892,86.68321c4.72912,-2.1036 9.12729,-4.1591 13.69305,-5.72658c7.89838,-2.71165 11.3851,-0.01857 10.35572,8.06735c-0.58762,4.61568 -1.52903,9.24275 -2.87082,13.69606c-5.31613,17.64373 -18.53257,26.19903 -35.4975,30.27526c-0.15753,0.03787 -0.3346,-0.01277 -0.49738,0.01192c-10.49746,1.59187 -12.32837,-0.87255 -9.31787,-11.35638c4.10529,-14.29645 11.88422,-25.90986 24.1348,-34.96763z" fill="#FFBD13"/>
  <path id="svg_14" d="m398.47784,277.46301c-0.74981,-0.05453 -1.29843,-0.28744 -1.84701,-0.52032c0.22616,-0.29395 0.45233,-0.58786 0.67853,-0.88178c0.51504,0.10208 1.03009,0.20417 1.65371,0.58118c-0.02227,0.39746 -0.15313,0.51999 -0.48523,0.82092z" fill="#000000"/>
 </g>
</svg>